<svg xmlns="http://www.w3.org/2000/svg" width="85.305" height="13.983" viewBox="0 0 85.305 13.983"><defs><style>.a{fill:#f25b2a;}</style></defs><g transform="translate(-141.295 -190.873)"><path class="a" d="M183.011,196.341a5.613,5.613,0,0,0-3.714,9.827,4.213,4.213,0,0,1,3.714-2.222,1.986,1.986,0,1,1,1.55-3.211,1.985,1.985,0,0,1-1.55,3.211,4.2,4.2,0,0,1,2.082.552l.006-.012a2.345,2.345,0,0,0,3.44-1.552c.01-.056.018-.112.026-.168,0-.006,0-.012,0-.018h0a5.578,5.578,0,0,0-5.557-6.409Z" transform="translate(-18.011 -2.724)"/><path d="M157.476,200.652v6.615h-3.633V201.1c0-1.1-.405-1.633-1.177-1.633-1,0-1.51.688-1.51,2.016v5.784h-3.538V201.1c0-1.068-.4-1.633-1.163-1.633-.985,0-1.525.7-1.525,2.016v5.784h-3.634V196.72h2.555l.517,1.133a4.067,4.067,0,0,1,3.084-1.445,3.552,3.552,0,0,1,3.025,1.553,4.113,4.113,0,0,1,3.239-1.553C155.974,196.408,157.476,198.168,157.476,200.652Z" transform="translate(0 -2.758)"/><path d="M214.083,200.836v6.432h-3.634v-5.929c0-1.228-.461-1.837-1.375-1.837-1.133,0-1.785.791-1.785,2.134v5.632h-3.633V196.72H206.2l.5,1.088a4.383,4.383,0,0,1,3.321-1.4C212.474,196.408,214.083,198.148,214.083,200.836Z" transform="translate(-31.116 -2.758)"/><path d="M256.673,196.691v10.548h-2.809l-.311-.746a5,5,0,0,1-3.183,1.1,5.612,5.612,0,0,1,0-11.223,5.008,5.008,0,0,1,3.223,1.133l.372-.815Zm-3.456,5.282a2.361,2.361,0,1,0-2.361,2.406A2.317,2.317,0,0,0,253.217,201.973Z" transform="translate(-51.665 -2.74)"/><path d="M279.9,196.93v3.325h-1.41c-1.286,0-1.824.564-1.824,1.909v5.364h-3.633V196.98h2.434l.566,1.171a3.524,3.524,0,0,1,2.906-1.221Z" transform="translate(-65.731 -3.018)"/><path d="M299.767,196.691v10.548h-2.808l-.311-.746a5,5,0,0,1-3.183,1.1,5.612,5.612,0,0,1,0-11.223,5.005,5.005,0,0,1,3.223,1.133l.372-.815Zm-3.455,5.282a2.362,2.362,0,1,0-2.361,2.406A2.317,2.317,0,0,0,296.312,201.973Z" transform="translate(-73.167 -2.74)"/><path d="M233.31,201.327a1.119,1.119,0,0,1-1.223-1.211v-3.358h2.558v-2.8H232v-3.085h-3.541v3.085h-1.931v2.8h1.931v3.982a3.471,3.471,0,0,0,3.75,3.771h2.5v-3.183Z" transform="translate(-42.526 0)"/></g></svg>